<svg width="234" height="234" viewBox="0 0 234 234" fill="none" xmlns="http://www.w3.org/2000/svg">
<path d="M226.35 119.552H213.369C210.547 119.552 208.854 117.295 209.136 114.755L211.675 98.952H172.733C169.911 98.952 167.653 101.209 167.089 104.314L163.702 124.632C163.138 128.018 165.113 129.993 167.653 129.993C170.193 129.993 171.886 128.3 172.45 125.478L174.708 112.497C174.99 109.958 177.53 107.7 179.788 107.7C182.327 107.7 183.456 109.958 182.892 112.497L172.168 174.58C171.604 177.12 169.064 179.377 166.524 179.377H160.598C157.776 179.377 155.519 181.635 154.954 184.174L153.543 192.358C153.261 194.898 155.237 197.155 157.776 197.155C160.316 197.155 162.009 195.18 162.291 192.64C162.574 190.101 165.396 188.125 167.935 188.125H172.168C175.837 188.125 179.505 185.021 180.352 181.353L185.149 156.802C185.714 154.262 188.253 152.004 190.793 152.004H204.903C207.725 152.004 209.418 154.262 209.136 156.802L203.774 191.229C203.21 194.333 205.467 196.873 208.571 196.873H217.319C220.141 196.873 222.681 195.744 222.681 192.358C222.681 190.947 221.552 188.407 217.884 188.407C215.062 188.407 213.369 186.15 213.651 183.61L219.012 149.465C219.577 145.796 217.037 142.692 213.086 142.692H209.418C206.596 142.692 204.903 140.434 205.185 137.895L206.878 127.736H226.067C228.889 127.736 230.865 125.76 230.865 123.221C231.147 121.245 228.889 119.552 226.35 119.552Z" fill="#3C9195"/>
<path d="M190.794 93.0258H208.854C211.676 93.0258 212.805 91.0504 211.676 88.5107L205.186 74.401C204.057 71.8613 201.8 71.5791 200.106 73.8366L188.536 89.0751C187.126 91.3326 187.972 93.0258 190.794 93.0258Z" fill="#3C9195"/>
<path d="M210.829 71.2967C211.393 71.5789 211.958 71.8611 212.522 71.8611C213.369 71.8611 213.933 71.5789 214.498 70.7324L220.706 62.5487C221.552 61.42 221.27 59.7268 220.141 58.8802C219.013 58.0336 217.32 58.3158 216.473 59.4446L210.265 67.6282C209.418 68.757 209.7 70.4502 210.829 71.2967Z" fill="#3C9195"/>
<path d="M214.78 79.4803C215.344 80.3269 216.191 80.8913 217.038 80.8913C217.32 80.8913 217.884 80.8913 218.166 80.6091L228.89 75.5296C230.301 74.9652 230.865 73.2721 230.018 72.1433C229.454 70.7323 227.761 70.1679 226.632 71.0145L215.909 76.094C214.78 76.6584 214.216 78.0693 214.78 79.4803Z" fill="#3C9195"/>
<path d="M231.43 85.4065H220.425C219.014 85.4065 217.885 86.5353 217.885 87.9462C217.885 89.3572 219.014 90.486 220.425 90.486H231.43C232.841 90.486 233.97 89.3572 233.97 87.9462C233.97 86.5353 232.841 85.4065 231.43 85.4065Z" fill="#3C9195"/>
<path d="M61.2656 71.2967C61.83 71.5789 62.3944 71.8611 62.9588 71.8611C63.8054 71.8611 64.3697 71.5789 64.9341 70.7324L71.1424 62.5487C71.989 61.42 71.7068 59.7268 70.578 58.8802C69.4492 58.0336 67.7561 58.3158 66.9095 59.4446L60.7012 67.6282C59.8546 68.757 60.1368 70.4502 61.2656 71.2967Z" fill="#3C9195"/>
<path d="M65.2185 79.4803C65.7829 80.3269 66.6294 80.8913 67.476 80.8913C67.7582 80.8913 68.3226 80.8913 68.6048 80.6091L79.3282 75.5296C80.7391 74.9652 81.3035 73.2721 80.457 72.1433C79.8926 70.7323 78.1994 70.1679 77.0706 71.0145L66.3473 76.094C65.2185 76.6584 64.6541 78.0693 65.2185 79.4803Z" fill="#3C9195"/>
<path d="M68.3213 87.9462C68.3213 89.3572 69.4501 90.486 70.861 90.486H81.8666C83.2775 90.486 84.4063 89.3572 84.4063 87.9462C84.4063 86.5353 83.2775 85.4065 81.8666 85.4065H70.861C69.4501 85.4065 68.3213 86.5353 68.3213 87.9462Z" fill="#3C9195"/>
<path d="M38.9737 93.0258H57.0341C59.8561 93.0258 60.9848 91.0504 59.8561 88.5107L53.3656 74.401C52.2368 71.8613 49.9793 71.5791 48.2861 73.8366L36.7162 89.0751C35.3052 91.3326 36.1518 93.0258 38.9737 93.0258Z" fill="#3C9195"/>
<path d="M68.0394 128.582H60.4201C57.5982 128.582 55.905 126.325 56.1872 123.785L59.8558 98.952H35.3049C32.4829 98.952 28.25 98.952 25.7103 98.952C23.1706 98.952 20.913 101.209 20.3486 103.749L17.2445 123.785C16.9623 126.325 18.6555 128.582 21.1952 128.582C23.7349 128.582 25.4281 130.84 25.1459 133.38L24.5815 136.766C24.2993 139.306 23.4527 143.821 23.1706 146.361C22.8884 148.9 22.0418 153.133 21.7596 155.955L21.1952 160.188C20.913 162.728 18.3733 164.985 15.8335 164.985C13.2938 164.985 9.06086 164.985 6.52112 164.985C3.98137 164.985 1.72382 166.961 1.15943 169.5C1.15943 172.04 0.312853 175.991 0.0306595 178.531C-0.251534 181.07 1.44163 183.046 3.98137 183.046C6.52112 183.046 8.77867 181.07 9.34306 178.531C9.90744 175.991 12.165 174.015 14.9869 174.015H23.7349C26.5569 174.015 28.8144 172.04 29.3788 169.5C29.9432 166.961 30.5076 162.728 30.7898 160.188L31.3542 155.955C31.6364 153.415 34.1761 151.158 36.9981 151.158H38.1268C40.9488 151.158 42.6419 153.415 42.3597 155.955L38.1268 183.61C37.8446 186.15 36.9981 190.383 36.7159 192.922C36.4337 195.462 38.1268 197.438 40.9488 197.438H48.568C51.3899 197.438 53.6475 195.462 54.2119 192.922C54.4941 190.383 53.0831 188.407 50.8255 188.407C48.568 188.407 46.8748 186.15 47.4392 183.61L51.6721 155.955C51.9543 153.415 52.5187 151.158 52.5187 151.158C52.5187 151.158 52.8009 148.9 53.3653 146.361L53.9297 142.692C54.2119 140.152 56.7516 137.895 59.5736 137.895H67.1928C70.0147 137.895 72.2723 135.919 72.8367 133.38C73.4011 130.84 70.8613 128.582 68.0394 128.582Z" fill="#3C9195"/>
<path d="M143.102 59.1626C141.974 58.316 140.28 58.5982 139.434 59.727L133.226 67.9106C132.379 69.0393 132.661 70.7325 133.79 71.5791C134.354 71.8613 134.919 72.1435 135.483 72.1435C136.33 72.1435 136.894 71.8613 137.459 71.0147L143.667 62.8311C144.513 61.7023 144.231 60.0091 143.102 59.1626Z" fill="#3C9195"/>
<path d="M139.998 80.8915C140.28 80.8915 140.845 80.8915 141.127 80.6093L148.464 77.2229C149.875 76.6586 150.439 74.9654 149.593 73.8366C149.028 72.4256 147.335 71.8613 146.206 72.7078L138.869 76.0942C137.458 76.6586 136.894 78.3517 137.741 79.4805C138.305 80.3271 139.152 80.8915 139.998 80.8915Z" fill="#3C9195"/>
<path d="M120.81 73.8367L109.24 89.0752C107.547 91.3327 108.393 93.0259 111.215 93.0259H129.276C132.098 93.0259 133.226 91.0505 132.098 88.5108L125.607 74.4011C124.76 71.8613 122.503 71.8613 120.81 73.8367Z" fill="#3C9195"/>
<path d="M129.84 112.779C130.122 110.24 132.662 107.982 135.484 107.982H154.673L158.342 83.1491C158.624 80.6093 156.931 78.3518 154.391 78.3518C151.851 78.3518 149.594 80.6093 149.029 83.1491L148.747 85.4066H143.386C141.975 85.4066 140.846 86.5354 140.846 87.9464C140.846 89.3574 141.975 90.4861 143.386 90.4861H147.901L147.336 93.8725C147.054 96.4122 144.514 98.6698 141.692 98.6698H88.64C85.8181 98.6698 83.5605 100.645 82.9961 103.185C82.7139 105.725 79.892 123.503 79.892 123.503C79.6098 126.043 81.303 128.3 83.8427 128.3C86.3824 128.3 88.64 126.043 89.2044 123.503L90.8975 112.497C91.1797 109.958 93.7195 107.7 96.2592 107.7C98.799 107.7 100.492 109.958 100.21 112.497L95.1305 145.796C94.8483 148.336 96.5414 150.593 99.3634 150.593H99.9278C102.75 150.593 104.443 152.851 104.161 155.391L101.339 173.733C101.057 176.273 98.5168 178.531 95.977 178.531C93.4373 178.531 89.2044 178.531 86.6646 178.531C84.1249 178.531 81.8673 180.506 81.303 183.046C81.0208 185.585 80.1742 189.536 79.892 192.076C79.6098 194.616 81.303 196.591 83.8427 196.591C86.3824 196.591 88.64 194.616 89.2044 192.076C89.7688 189.536 92.0263 187.561 94.8483 187.561H103.596C106.418 187.561 108.676 185.585 109.24 183.046C109.522 180.506 110.369 176.273 110.651 173.733L114.32 150.593C114.32 150.593 125.89 150.593 128.429 150.593C130.969 150.593 132.662 152.851 132.38 155.391C132.38 155.391 130.687 166.678 130.405 169.218C130.122 171.758 131.816 173.733 134.638 173.733H142.257C145.079 173.733 147.336 171.758 147.901 169.218C148.183 166.678 146.772 164.703 144.514 164.703C142.257 164.703 140.564 162.446 141.128 159.906C141.128 159.906 142.821 148.618 143.103 146.078C143.386 143.539 141.692 141.563 139.153 141.563C136.613 141.563 132.38 141.563 130.122 141.563C127.865 141.563 125.89 139.306 126.172 136.766L129.84 112.779Z" fill="#3C9195"/>
<path d="M153.262 65.3708C152.98 67.3462 154.39 69.3215 156.366 69.6037C156.648 69.6037 156.648 69.6037 156.93 69.6037C158.623 69.6037 160.317 68.1927 160.599 66.4996L165.396 35.4583L166.243 29.25H96.8229L94.2832 46.1816H156.366L153.262 65.3708Z" fill="#3C9195"/>
</svg>
